<svg width="70" height="70" viewBox="0 0 70 70" fill="none" xmlns="http://www.w3.org/2000/svg">
<path d="M62.3427 7.6582H56.6355L40.4797 28.3312L30.5802 16.8555L2.1875 58.0341V67.8134H8.73031L31.5481 34.722L40.8964 45.5588L62.3427 18.1166V7.6582Z" fill="url(#paint0_linear_330_29)"/>
<path d="M67.8125 2.1875H2.1875V54.18L5.23141 49.7656H4.375V36.0938H14.6584L16.1667 33.9062H4.375V20.2344H18.0469V31.1773L20.2344 28.0055V20.2344H25.5927L27.1009 18.0469H20.2344V4.375H33.9062V17.3644L36.3847 20.2344H44.03L45.7395 18.0469H36.0938V4.375H49.7656V12.8964L51.9531 10.0953V4.375H65.625V18.0469H64.5323V18.8683L63.4637 20.2344H65.625V33.9062H52.78L49.7656 37.7617V49.7656H36.0938V43.3409L33.9062 40.8067V49.7656H23.8328L22.3245 51.9531H33.9062V65.625H20.2344V54.9817L18.0469 58.1536V65.625H12.8964L11.3881 67.8125H67.8125V2.1875ZM18.0469 18.0469H4.375V4.375H18.0469V18.0469ZM49.7656 65.625H36.0938V51.9531H49.7656V65.625ZM65.625 65.625H51.9531V51.9531H65.625V65.625ZM65.625 49.7656H51.9531V36.0938H65.625V49.7656Z" fill="url(#paint1_linear_330_29)"/>
<defs>
<linearGradient id="paint0_linear_330_29" x1="32.2651" y1="7.6582" x2="32.2651" y2="67.8134" gradientUnits="userSpaceOnUse">
<stop stop-color="#F5F5F5"/>
<stop offset="1" stop-color="#1D426D"/>
</linearGradient>
<linearGradient id="paint1_linear_330_29" x1="35" y1="2.1875" x2="35" y2="67.8125" gradientUnits="userSpaceOnUse">
<stop stop-color="#F5F5F5"/>
<stop offset="1" stop-color="#1D426D"/>
</linearGradient>
</defs>
</svg>
