<svg width="75" height="75" viewBox="0 0 75 75" fill="none" xmlns="http://www.w3.org/2000/svg">
<path d="M29.6875 9.375C35.0747 9.375 40.2413 11.5151 44.0506 15.3244C47.8599 19.1337 50 24.3003 50 29.6875C50 34.7188 48.1562 39.3437 45.125 42.9062L45.9688 43.75H48.4375L64.0625 59.375L59.375 64.0625L43.75 48.4375V45.9688L42.9062 45.125C39.2199 48.2702 34.5333 49.9986 29.6875 50C24.3003 50 19.1337 47.8599 15.3244 44.0506C11.5151 40.2413 9.375 35.0747 9.375 29.6875C9.375 24.3003 11.5151 19.1337 15.3244 15.3244C19.1337 11.5151 24.3003 9.375 29.6875 9.375ZM29.6875 15.625C21.875 15.625 15.625 21.875 15.625 29.6875C15.625 37.5 21.875 43.75 29.6875 43.75C37.5 43.75 43.75 37.5 43.75 29.6875C43.75 21.875 37.5 15.625 29.6875 15.625Z" fill="url(#paint0_linear_330_34)"/>
<defs>
<linearGradient id="paint0_linear_330_34" x1="36.7188" y1="9.375" x2="36.7188" y2="64.0625" gradientUnits="userSpaceOnUse">
<stop stop-color="#F5F5F5"/>
<stop offset="1" stop-color="#1D426D"/>
</linearGradient>
</defs>
</svg>
