<svg width="47" height="47" viewBox="0 0 47 47" fill="none" xmlns="http://www.w3.org/2000/svg">
<path d="M15.2751 3.9165H31.7251C37.9918 3.9165 43.0834 9.00817 43.0834 15.2748V31.7248C43.0834 34.7373 41.8867 37.6263 39.7566 39.7564C37.6265 41.8865 34.7375 43.0832 31.7251 43.0832H15.2751C9.00842 43.0832 3.91675 37.9915 3.91675 31.7248V15.2748C3.91675 12.2624 5.11343 9.37338 7.24353 7.24328C9.37363 5.11318 12.2627 3.9165 15.2751 3.9165ZM14.8834 7.83317C13.0136 7.83317 11.2204 8.57594 9.89831 9.89807C8.57618 11.2202 7.83341 13.0134 7.83341 14.8832V32.1165C7.83341 36.0136 10.9863 39.1665 14.8834 39.1665H32.1167C33.9865 39.1665 35.7797 38.4237 37.1019 37.1016C38.424 35.7795 39.1667 33.9863 39.1667 32.1165V14.8832C39.1667 10.9861 36.0138 7.83317 32.1167 7.83317H14.8834ZM33.7813 10.7707C34.4306 10.7707 35.0532 11.0286 35.5123 11.4876C35.9713 11.9467 36.2292 12.5694 36.2292 13.2186C36.2292 13.8678 35.9713 14.4905 35.5123 14.9495C35.0532 15.4086 34.4306 15.6665 33.7813 15.6665C33.1321 15.6665 32.5095 15.4086 32.0504 14.9495C31.5913 14.4905 31.3334 13.8678 31.3334 13.2186C31.3334 12.5694 31.5913 11.9467 32.0504 11.4876C32.5095 11.0286 33.1321 10.7707 33.7813 10.7707ZM23.5001 13.7082C26.097 13.7082 28.5875 14.7398 30.4238 16.5761C32.2601 18.4124 33.2917 20.9029 33.2917 23.4998C33.2917 26.0967 32.2601 28.5873 30.4238 30.4236C28.5875 32.2599 26.097 33.2915 23.5001 33.2915C20.9032 33.2915 18.4126 32.2599 16.5763 30.4236C14.74 28.5873 13.7084 26.0967 13.7084 23.4998C13.7084 20.9029 14.74 18.4124 16.5763 16.5761C18.4126 14.7398 20.9032 13.7082 23.5001 13.7082ZM23.5001 17.6248C21.9419 17.6248 20.4476 18.2438 19.3458 19.3456C18.2441 20.4474 17.6251 21.9417 17.6251 23.4998C17.6251 25.058 18.2441 26.5523 19.3458 27.6541C20.4476 28.7559 21.9419 29.3748 23.5001 29.3748C25.0582 29.3748 26.5526 28.7559 27.6543 27.6541C28.7561 26.5523 29.3751 25.058 29.3751 23.4998C29.3751 21.9417 28.7561 20.4474 27.6543 19.3456C26.5526 18.2438 25.0582 17.6248 23.5001 17.6248Z" fill="#F5F5F5"/>
</svg>
