<svg width="55" height="55" viewBox="0 0 55 55" fill="none" xmlns="http://www.w3.org/2000/svg">
<path d="M41.25 6.875C43.0734 6.875 44.822 7.59933 46.1114 8.88864C47.4007 10.178 48.125 11.9266 48.125 13.75V41.25C48.125 43.0734 47.4007 44.822 46.1114 46.1114C44.822 47.4007 43.0734 48.125 41.25 48.125H13.75C11.9266 48.125 10.178 47.4007 8.88864 46.1114C7.59933 44.822 6.875 43.0734 6.875 41.25V13.75C6.875 11.9266 7.59933 10.178 8.88864 8.88864C10.178 7.59933 11.9266 6.875 13.75 6.875H41.25ZM41.25 11.4583H13.75C13.1422 11.4583 12.5593 11.6998 12.1295 12.1295C11.6998 12.5593 11.4583 13.1422 11.4583 13.75V41.25C11.4583 41.8578 11.6998 42.4407 12.1295 42.8705C12.5593 43.3002 13.1422 43.5417 13.75 43.5417H41.25C41.8578 43.5417 42.4407 43.3002 42.8705 42.8705C43.3002 42.4407 43.5417 41.8578 43.5417 41.25V13.75C43.5417 13.1422 43.3002 12.5593 42.8705 12.1295C42.4407 11.6998 41.8578 11.4583 41.25 11.4583ZM18.3333 22.9167C18.8946 22.9167 19.4364 23.1228 19.8559 23.4958C20.2753 23.8688 20.5433 24.3828 20.609 24.9402L20.625 25.2083V36.6667C20.6244 37.2508 20.4007 37.8126 19.9997 38.2373C19.5988 38.662 19.0507 38.9176 18.4676 38.9519C17.8845 38.9861 17.3104 38.7964 16.8625 38.4215C16.4146 38.0466 16.1267 37.5148 16.0577 36.9348L16.0417 36.6667V25.2083C16.0417 24.6005 16.2831 24.0177 16.7129 23.5879C17.1427 23.1581 17.7255 22.9167 18.3333 22.9167ZM25.2083 20.625C25.745 20.6249 26.2647 20.8132 26.6768 21.157C27.0889 21.5009 27.3673 21.9784 27.4633 22.5065C27.9249 22.2399 28.4016 22.0004 28.891 21.7892C30.4196 21.136 32.709 20.7763 34.776 21.4248C35.86 21.7685 36.9485 22.4102 37.7552 23.5033C38.4771 24.4773 38.8667 25.6621 38.9446 26.9935L38.9583 27.5V36.6667C38.9577 37.2508 38.734 37.8126 38.3331 38.2373C37.9321 38.662 37.3841 38.9176 36.801 38.9519C36.2179 38.9861 35.6437 38.7964 35.1958 38.4215C34.7479 38.0466 34.46 37.5148 34.391 36.9348L34.375 36.6667V27.5C34.375 26.7438 34.1917 26.3908 34.0725 26.2281C33.9012 26.0156 33.6656 25.8644 33.401 25.7973C32.6035 25.5452 31.4554 25.6781 30.6923 26.0035C29.5465 26.494 28.4969 27.264 27.7819 27.9767L27.5 28.2792V36.6667C27.4994 37.2508 27.2757 37.8126 26.8747 38.2373C26.4738 38.662 25.9257 38.9176 25.3426 38.9519C24.7595 38.9861 24.1854 38.7964 23.7375 38.4215C23.2896 38.0466 23.0017 37.5148 22.9327 36.9348L22.9167 36.6667V22.9167C22.9167 22.3089 23.1581 21.726 23.5879 21.2962C24.0177 20.8664 24.6005 20.625 25.2083 20.625ZM18.3333 16.0417C18.9411 16.0417 19.524 16.2831 19.9538 16.7129C20.3836 17.1427 20.625 17.7255 20.625 18.3333C20.625 18.9411 20.3836 19.524 19.9538 19.9538C19.524 20.3836 18.9411 20.625 18.3333 20.625C17.7255 20.625 17.1427 20.3836 16.7129 19.9538C16.2831 19.524 16.0417 18.9411 16.0417 18.3333C16.0417 17.7255 16.2831 17.1427 16.7129 16.7129C17.1427 16.2831 17.7255 16.0417 18.3333 16.0417Z" fill="#F5F5F5"/>
</svg>
