<svg width="70" height="70" viewBox="0 0 70 70" fill="none" xmlns="http://www.w3.org/2000/svg">
<g clip-path="url(#clip0_330_32)">
<path d="M56.8747 43.75C57.5975 43.7495 58.3002 43.9877 58.8738 44.4275C59.4473 44.8674 59.8596 45.4843 60.0466 46.1825C60.5039 47.9997 61.445 49.659 62.77 50.984C64.0951 52.309 65.7544 53.2502 67.5716 53.7075C68.2695 53.8943 68.8862 54.3062 69.3261 54.8793C69.766 55.4524 70.0045 56.1547 70.0045 56.8772C70.0045 57.5997 69.766 58.3019 69.3261 58.8751C68.8862 59.4482 68.2695 59.8601 67.5716 60.0469C65.7544 60.5042 64.0951 61.4453 62.77 62.7703C61.445 64.0954 60.5039 65.7547 60.0466 67.5719C59.8612 68.2717 59.4496 68.8905 58.8759 69.3321C58.3023 69.7736 57.5986 70.013 56.8747 70.013C56.1508 70.013 55.4472 69.7736 54.8735 69.3321C54.2998 68.8905 53.8882 68.2717 53.7028 67.5719C53.2456 65.7547 52.3044 64.0954 50.9794 62.7703C49.6544 61.4453 47.995 60.5042 46.1778 60.0469C45.478 59.8615 44.8592 59.4499 44.4176 58.8762C43.9761 58.3025 43.7367 57.5989 43.7367 56.875C43.7367 56.1511 43.9761 55.4475 44.4176 54.8738C44.8592 54.3001 45.478 53.8885 46.1778 53.7031C47.995 53.2458 49.6544 52.3047 50.9794 50.9797C52.3044 49.6546 53.2456 47.9953 53.7028 46.1781L53.891 45.6662C54.1525 45.0946 54.5727 44.6101 55.1017 44.2703C55.6306 43.9306 56.2461 43.75 56.8747 43.75ZM30.6247 6.23487e-07C31.6603 0.000477364 32.6621 0.368291 33.452 1.03801C34.2419 1.70773 34.7686 2.63593 34.9385 3.6575C36.1591 10.9638 38.5041 15.9075 41.921 19.3288C45.3378 22.7456 50.286 25.0906 57.5922 26.3112C58.6116 26.4836 59.537 27.0114 60.2043 27.8011C60.8716 28.5907 61.2377 29.5912 61.2377 30.625C61.2377 31.6588 60.8716 32.6593 60.2043 33.4489C59.537 34.2386 58.6116 34.7664 57.5922 34.9388C50.286 36.1594 45.3422 38.5044 41.921 41.9212C38.5041 45.3381 36.1591 50.2862 34.9385 57.5925C34.7661 58.6119 34.2383 59.5373 33.4486 60.2046C32.659 60.8719 31.6586 61.238 30.6247 61.238C29.5909 61.238 28.5904 60.8719 27.8008 60.2046C27.0112 59.5373 26.4833 58.6119 26.311 57.5925C25.0903 50.2862 22.7453 45.3425 19.3285 41.9212C15.9116 38.5044 10.9635 36.1594 3.65721 34.9388C2.63784 34.7664 1.71246 34.2386 1.04514 33.4489C0.377834 32.6593 0.0117188 31.6588 0.0117188 30.625C0.0117187 29.5912 0.377834 28.5907 1.04514 27.8011C1.71246 27.0114 2.63784 26.4836 3.65721 26.3112C10.9635 25.0906 15.9072 22.7456 19.3285 19.3288C22.7453 15.9119 25.0903 10.9638 26.311 3.6575L26.3897 3.26813C26.6346 2.33162 27.1832 1.50278 27.9495 0.911398C28.7159 0.320014 29.6567 -0.000515981 30.6247 6.23487e-07Z" fill="url(#paint0_linear_330_32)"/>
</g>
<defs>
<linearGradient id="paint0_linear_330_32" x1="35.0081" y1="0" x2="35.0081" y2="70.013" gradientUnits="userSpaceOnUse">
<stop stop-color="#F5F5F5"/>
<stop offset="1" stop-color="#1D426D"/>
</linearGradient>
<clipPath id="clip0_330_32">
<rect width="70" height="70" fill="white"/>
</clipPath>
</defs>
</svg>
